# xmcd
#
# Track frame offsets: 
#        150
#        18425
#        31751
#        44464
#        57809
#        72892
#        89050
#        108151
#        120870
#        137256
#        152850
#        167580
#        181883
#
# Disc length: 2594 seconds
#
# Revision: 0
# Processed by: cddbd v1.5.2PL0 Copyright (c) Steve Scherf et al.
# Submitted via: ExactAudioCopyFreeDBPlugin 1.0
#
DISCID=9b0a200d
DTITLE=Pear - Sweet n' Gritty
DYEAR=2012
DGENRE=Country
TTITLE0=A Chance to Change the World
TTITLE1=Take Me with You
TTITLE2=Our Little Corner of the World
TTITLE3=Lonesome Road
TTITLE4=This Ain't a Love Song
TTITLE5=The Young and the Reckless
TTITLE6=That's How Much I Love You
TTITLE7=Simple
TTITLE8=Sweet n' Gritty
TTITLE9=My Masterpiece
TTITLE10=Back Again
TTITLE11=Never Lookin' Back
TTITLE12=Simple (Acoustic Version)
EXTD=
EXTT0=
EXTT1=
EXTT2=
EXTT3=
EXTT4=
EXTT5=
EXTT6=
EXTT7=
EXTT8=
EXTT9=
EXTT10=
EXTT11=
EXTT12=
PLAYORDER=
